<?xml version="1.0" encoding="UTF-8"?>
<svg width="9px" height="9px" viewBox="0 0 9 9" version="1.1" xmlns="http://www.w3.org/2000/svg" xmlns:xlink="http://www.w3.org/1999/xlink">
    <!-- Generator: Sketch 55.2 (78181) - https://sketchapp.com -->
    <title>Icon</title>
    <desc>Created with Sketch.</desc>
    <g id="Google-Chrome" stroke="none" stroke-width="1" fill="none" fill-rule="evenodd">
        <g id="Google-Chrome-74.0" transform="translate(-472.000000, -612.000000)" fill="#5D6063">
            <g id="Google-Chrome-Browser-74.0-Light" transform="translate(174.000000, 591.000000)">
                <g id="Header">
                    <g id="Tab" transform="translate(70.000000, 8.000000)">
                        <path d="M233.16525,17.10825 L235.99625,14.27725 C236.28725,13.98625 236.28725,13.50925 235.99625,13.21825 C235.70525,12.92725 235.22925,12.92725 234.93825,13.21825 L232.10725,16.04925 L229.27625,13.21825 C228.98525,12.92725 228.50925,12.92725 228.21825,13.21825 C227.92725,13.50925 227.92725,13.98625 228.21825,14.27725 L231.04925,17.10825 L228.21825,19.93925 C227.92725,20.23025 227.92725,20.70625 228.21825,20.99725 C228.50925,21.28825 228.98525,21.28825 229.27625,20.99725 L232.10725,18.16625 L234.93825,20.99725 C235.22925,21.28825 235.70525,21.28825 235.99625,20.99725 C236.28725,20.70625 236.28725,20.23025 235.99625,19.93925 L233.16525,17.10825 Z" id="Icon"></path>
                    </g>
                </g>
            </g>
        </g>
    </g>
</svg>